<?xml version="1.0" encoding="utf-8"?>
<!-- Generator: Adobe Illustrator 21.1.0, SVG Export Plug-In . SVG Version: 6.00 Build 0)  -->
<svg version="1.1" id="Capa_1" xmlns="http://www.w3.org/2000/svg" xmlns:xlink="http://www.w3.org/1999/xlink" x="0px" y="0px"
	 viewBox="0 0 85 85" style="enable-background:new 0 0 85 85;" xml:space="preserve">
<style type="text/css">
	.st0{fill:#006DFF;}
	.st1{fill:none;stroke:#FFFFFF;stroke-width:1.5729;stroke-miterlimit:10;}
	.st2{fill:#FFFFFF;}
</style>
<g>
	<rect class="st0" width="85" height="85"/>
	<g>
		<polyline class="st1" points="51.3,21.8 51.3,38.9 33,38.9 33,15.4 44.8,15.4 		"/>
		<polygon class="st2" points="52,21.8 44.8,21.8 44.8,14.6 		"/>
		<g>
			<line class="st1" x1="37.4" y1="25.8" x2="46.8" y2="25.8"/>
			<line class="st1" x1="37.4" y1="33" x2="46.8" y2="33"/>
			<line class="st1" x1="37.4" y1="29.4" x2="46.8" y2="29.4"/>
		</g>
	</g>
	<g>
		<path class="st2" d="M25,48.6v3.3h-0.5l-0.2-0.8c-0.4,0.6-1,0.8-1.7,0.8c-0.8,0-1.5-0.3-1.9-0.9s-0.7-1.4-0.7-2.3
			c0-1,0.2-1.8,0.7-2.4c0.5-0.6,1.2-1,2-1c1.2,0,1.9,0.6,2.3,1.8l-0.8,0.2c-0.1-0.5-0.3-0.8-0.6-1c-0.3-0.2-0.6-0.3-1-0.3
			c-0.6,0-1.1,0.3-1.4,0.8s-0.4,1.1-0.4,1.9c0,0.8,0.2,1.5,0.5,1.9s0.8,0.7,1.4,0.7c0.4,0,0.8-0.1,1.1-0.4c0.3-0.3,0.4-0.7,0.4-1.2
			c0-0.1,0-0.2,0-0.3h-1.6v-0.7H25z"/>
		<path class="st2" d="M29.5,50.4l0.7,0.1c-0.1,0.4-0.4,0.7-0.7,1c-0.4,0.3-0.8,0.4-1.3,0.4c-0.6,0-1.2-0.2-1.6-0.7
			c-0.4-0.5-0.6-1-0.6-1.8c0-0.7,0.2-1.3,0.6-1.8c0.4-0.5,0.9-0.7,1.5-0.7c0.6,0,1.1,0.2,1.5,0.6c0.4,0.4,0.6,1.1,0.6,1.9h-3.4
			c0,0.7,0.1,1.2,0.4,1.4c0.3,0.2,0.6,0.4,0.9,0.4C28.8,51.3,29.2,51,29.5,50.4z M29.4,49c0-0.3,0-0.5-0.1-0.7
			c-0.1-0.2-0.2-0.4-0.4-0.5c-0.2-0.1-0.4-0.2-0.7-0.2c-0.4,0-0.7,0.1-0.9,0.4s-0.4,0.6-0.4,1H29.4z"/>
		<path class="st2" d="M35,51.8h-0.7v-3c0-0.4-0.1-0.7-0.3-0.9c-0.2-0.2-0.4-0.3-0.7-0.3c-0.4,0-0.7,0.1-0.9,0.4S32,48.8,32,49.2
			v2.6h-0.7v-4.7H32V48c0.4-0.7,0.9-1,1.5-1c0.3,0,0.6,0.1,0.9,0.3c0.2,0.2,0.4,0.4,0.5,0.6c0.1,0.2,0.1,0.6,0.1,1.2V51.8z"/>
		<path class="st2" d="M39.5,50.4l0.7,0.1c-0.1,0.4-0.4,0.7-0.7,1c-0.4,0.3-0.8,0.4-1.3,0.4c-0.6,0-1.2-0.2-1.6-0.7
			c-0.4-0.5-0.6-1-0.6-1.8c0-0.7,0.2-1.3,0.6-1.8c0.4-0.5,0.9-0.7,1.5-0.7c0.6,0,1.1,0.2,1.5,0.6c0.4,0.4,0.6,1.1,0.6,1.9h-3.4
			c0,0.7,0.1,1.2,0.4,1.4c0.3,0.2,0.6,0.4,0.9,0.4C38.9,51.3,39.3,51,39.5,50.4z M39.5,49c0-0.3,0-0.5-0.1-0.7
			c-0.1-0.2-0.2-0.4-0.4-0.5c-0.2-0.1-0.4-0.2-0.7-0.2c-0.4,0-0.7,0.1-0.9,0.4s-0.4,0.6-0.4,1H39.5z"/>
		<path class="st2" d="M42.1,51.8h-0.7v-4.7H42v1.1c0.2-0.5,0.5-0.9,0.7-1s0.5-0.2,0.7-0.2c0.1,0,0.2,0,0.3,0v0.7h-0.1
			c-0.4,0-0.7,0.1-1,0.4c-0.3,0.3-0.4,0.7-0.4,1.2V51.8z"/>
		<path class="st2" d="M48.2,51.8h-0.7c0-0.1-0.1-0.4-0.1-0.8c-0.3,0.6-0.9,1-1.6,1c-0.5,0-0.9-0.1-1.2-0.4c-0.3-0.3-0.4-0.6-0.4-1
			c0-0.5,0.2-0.9,0.6-1.2c0.4-0.3,1.1-0.5,2-0.5c0.1,0,0.3,0,0.6,0c0-0.4,0-0.6-0.1-0.8c-0.1-0.2-0.2-0.3-0.4-0.4s-0.4-0.1-0.7-0.1
			c-0.7,0-1.2,0.3-1.3,0.8l-0.7-0.1c0.2-0.9,0.9-1.3,2.1-1.3c0.6,0,1.1,0.1,1.4,0.4s0.4,0.8,0.4,1.5v2
			C48.1,51.2,48.1,51.5,48.2,51.8z M47.4,49.5c-0.3,0-0.5,0-0.7,0c-0.6,0-1,0.1-1.3,0.3c-0.3,0.2-0.5,0.5-0.5,0.8
			c0,0.2,0.1,0.4,0.3,0.6s0.4,0.2,0.7,0.2c0.4,0,0.8-0.2,1.1-0.5c0.3-0.3,0.4-0.7,0.4-1.1C47.4,49.7,47.4,49.6,47.4,49.5z"/>
		<path class="st2" d="M52.3,50.2l0.7,0.1c-0.1,0.5-0.3,0.9-0.6,1.2c-0.3,0.3-0.7,0.4-1.2,0.4c-0.6,0-1.1-0.2-1.5-0.7
			s-0.5-1.1-0.5-1.7c0-0.7,0.2-1.3,0.5-1.8c0.4-0.5,0.8-0.7,1.5-0.7c0.5,0,0.9,0.2,1.2,0.5c0.3,0.3,0.5,0.7,0.6,1.2l-0.7,0.1
			c-0.1-0.8-0.5-1.2-1.1-1.2c-0.4,0-0.7,0.2-0.9,0.5c-0.2,0.3-0.3,0.8-0.3,1.3c0,0.6,0.1,1.1,0.3,1.4s0.5,0.5,0.9,0.5
			C51.8,51.3,52.2,51,52.3,50.2z"/>
		<path class="st2" d="M54.7,45.5v0.8h-0.8v-0.8H54.7z M54.7,47.1v4.7H54v-4.7H54.7z"/>
		<path class="st2" d="M57.8,51.9c-0.6,0-1.1-0.2-1.5-0.7s-0.5-1.1-0.5-1.8c0-0.7,0.2-1.3,0.6-1.8c0.4-0.4,0.9-0.7,1.5-0.7
			c0.6,0,1.2,0.2,1.5,0.7c0.4,0.5,0.6,1.1,0.6,1.8c0,0.7-0.2,1.3-0.6,1.8C59,51.7,58.5,51.9,57.8,51.9z M57.9,51.3
			c0.4,0,0.7-0.2,0.9-0.5c0.3-0.3,0.4-0.8,0.4-1.4c0-0.6-0.1-1.1-0.4-1.4s-0.6-0.4-0.9-0.4c-0.4,0-0.7,0.1-0.9,0.4
			c-0.3,0.3-0.4,0.8-0.4,1.4c0,0.7,0.1,1.2,0.4,1.5C57.2,51.2,57.5,51.3,57.9,51.3z M59.3,45.5l-1.9,0.9L57.1,46L59,45L59.3,45.5z"
			/>
		<path class="st2" d="M64.8,51.8h-0.7v-3c0-0.4-0.1-0.7-0.3-0.9c-0.2-0.2-0.4-0.3-0.7-0.3c-0.4,0-0.7,0.1-0.9,0.4s-0.4,0.7-0.4,1.2
			v2.6h-0.7v-4.7h0.7V48c0.4-0.7,0.9-1,1.5-1c0.3,0,0.6,0.1,0.9,0.3c0.2,0.2,0.4,0.4,0.5,0.6c0.1,0.2,0.1,0.6,0.1,1.2V51.8z"/>
		<path class="st2" d="M17.8,55.5v6.3h-0.7V61c-0.3,0.6-0.8,0.9-1.5,0.9c-0.5,0-1-0.2-1.4-0.7c-0.4-0.5-0.5-1-0.5-1.7
			c0-0.7,0.2-1.3,0.5-1.8s0.8-0.7,1.4-0.7c0.6,0,1,0.3,1.4,0.8v-2.3H17.8z M17.1,58.9c0-0.4-0.1-0.7-0.4-1c-0.3-0.2-0.5-0.4-0.9-0.4
			c-0.4,0-0.7,0.2-0.9,0.5c-0.2,0.3-0.4,0.8-0.4,1.4c0,0.6,0.1,1.1,0.3,1.4c0.2,0.3,0.5,0.5,0.9,0.5c0.3,0,0.6-0.1,0.9-0.4
			c0.3-0.3,0.4-0.6,0.4-1V58.9z"/>
		<path class="st2" d="M22.4,60.4l0.7,0.1c-0.1,0.4-0.4,0.7-0.7,1c-0.4,0.3-0.8,0.4-1.3,0.4c-0.6,0-1.2-0.2-1.6-0.7
			c-0.4-0.5-0.6-1-0.6-1.8c0-0.7,0.2-1.3,0.6-1.8c0.4-0.5,0.9-0.7,1.5-0.7c0.6,0,1.1,0.2,1.5,0.6c0.4,0.4,0.6,1.1,0.6,1.9h-3.4
			c0,0.7,0.1,1.2,0.4,1.4c0.3,0.2,0.6,0.4,0.9,0.4C21.7,61.3,22.1,61,22.4,60.4z M22.3,59c0-0.3,0-0.5-0.1-0.7
			c-0.1-0.2-0.2-0.4-0.4-0.5c-0.2-0.1-0.4-0.2-0.7-0.2c-0.4,0-0.7,0.1-0.9,0.4s-0.4,0.6-0.4,1H22.3z"/>
		<path class="st2" d="M30.3,61.8h-0.7c0-0.1-0.1-0.4-0.1-0.8c-0.3,0.6-0.9,1-1.6,1c-0.5,0-0.9-0.1-1.2-0.4c-0.3-0.3-0.4-0.6-0.4-1
			c0-0.5,0.2-0.9,0.6-1.2c0.4-0.3,1.1-0.5,2.1-0.5c0.1,0,0.3,0,0.6,0c0-0.4,0-0.6-0.1-0.8c-0.1-0.2-0.2-0.3-0.4-0.4
			s-0.4-0.1-0.7-0.1c-0.7,0-1.2,0.3-1.3,0.8l-0.7-0.1c0.2-0.9,0.9-1.3,2.1-1.3c0.6,0,1.1,0.1,1.4,0.4c0.3,0.3,0.4,0.8,0.4,1.5v2
			C30.2,61.2,30.2,61.5,30.3,61.8z M29.5,59.5c-0.3,0-0.5,0-0.7,0c-0.6,0-1,0.1-1.3,0.3c-0.3,0.2-0.5,0.5-0.5,0.8
			c0,0.2,0.1,0.4,0.3,0.6c0.2,0.2,0.4,0.2,0.7,0.2c0.4,0,0.8-0.2,1.1-0.5s0.4-0.7,0.4-1.1C29.5,59.7,29.5,59.6,29.5,59.5z"/>
		<path class="st2" d="M32.4,61.8h-0.7v-4.7h0.6v1.1c0.2-0.5,0.5-0.9,0.7-1c0.2-0.2,0.5-0.2,0.7-0.2c0.1,0,0.2,0,0.3,0v0.7h-0.1
			c-0.4,0-0.7,0.1-1,0.4c-0.3,0.3-0.4,0.7-0.4,1.2V61.8z"/>
		<path class="st2" d="M37.4,60.2l0.7,0.1c-0.1,0.5-0.3,0.9-0.6,1.2c-0.3,0.3-0.7,0.4-1.2,0.4c-0.6,0-1.1-0.2-1.5-0.7
			s-0.5-1.1-0.5-1.7c0-0.7,0.2-1.3,0.5-1.8c0.4-0.5,0.8-0.7,1.5-0.7c0.5,0,0.9,0.2,1.2,0.5c0.3,0.3,0.5,0.7,0.6,1.2l-0.7,0.1
			c-0.1-0.8-0.5-1.2-1.1-1.2c-0.4,0-0.7,0.2-0.9,0.5c-0.2,0.3-0.3,0.8-0.3,1.3c0,0.6,0.1,1.1,0.3,1.4s0.5,0.5,0.9,0.5
			C36.9,61.3,37.2,61,37.4,60.2z"/>
		<path class="st2" d="M42.7,61.8H42V59c0-0.3,0-0.6-0.1-0.8s-0.1-0.3-0.3-0.4s-0.3-0.2-0.5-0.2c-0.4,0-0.7,0.2-0.9,0.5
			c-0.3,0.3-0.4,0.7-0.4,1.2v2.5H39v-6.3h0.7V58c0.3-0.7,0.8-1,1.4-1c0.3,0,0.5,0.1,0.7,0.2s0.4,0.3,0.5,0.4
			c0.1,0.2,0.2,0.3,0.2,0.5s0.1,0.5,0.1,0.9V61.8z"/>
		<path class="st2" d="M44.9,55.5v0.8h-0.8v-0.8H44.9z M44.9,57.1v4.7h-0.7v-4.7H44.9z"/>
		<path class="st2" d="M49.8,57.1l-1.6,4.7h-0.8l-1.7-4.7h0.8l1.3,3.8l1.3-3.8H49.8z"/>
		<path class="st2" d="M52.2,61.9c-0.6,0-1.1-0.2-1.5-0.7s-0.5-1.1-0.5-1.8c0-0.7,0.2-1.3,0.6-1.8c0.4-0.4,0.9-0.7,1.5-0.7
			c0.6,0,1.2,0.2,1.5,0.7c0.4,0.5,0.6,1.1,0.6,1.8c0,0.7-0.2,1.3-0.6,1.8C53.3,61.7,52.8,61.9,52.2,61.9z M52.2,61.3
			c0.4,0,0.7-0.2,0.9-0.5c0.3-0.3,0.4-0.8,0.4-1.4c0-0.6-0.1-1.1-0.4-1.4s-0.6-0.4-0.9-0.4c-0.4,0-0.7,0.1-0.9,0.4
			c-0.3,0.3-0.4,0.8-0.4,1.4c0,0.7,0.1,1.2,0.4,1.5C51.6,61.2,51.9,61.3,52.2,61.3z"/>
		<path class="st2" d="M54.8,60.6l0.7-0.1c0.2,0.6,0.6,0.9,1.5,0.9c0.3,0,0.6-0.1,0.8-0.2s0.3-0.3,0.3-0.6c0-0.4-0.3-0.6-0.8-0.7
			l-1-0.2c-0.4-0.1-0.7-0.2-0.9-0.4C55.1,59,55,58.7,55,58.4c0-0.4,0.2-0.7,0.5-1c0.3-0.3,0.7-0.4,1.3-0.4c1,0,1.6,0.4,1.9,1.2
			l-0.7,0.1c-0.2-0.5-0.6-0.7-1.2-0.7c-0.3,0-0.5,0.1-0.7,0.2c-0.2,0.1-0.3,0.3-0.3,0.5c0,0.3,0.2,0.6,0.7,0.7l0.9,0.2
			c1,0.2,1.4,0.6,1.4,1.4c0,0.4-0.2,0.8-0.5,1c-0.4,0.3-0.8,0.4-1.4,0.4C55.8,61.9,55.1,61.5,54.8,60.6z"/>
		<path class="st2" d="M65.9,55.5v6.3h-0.7V61c-0.3,0.6-0.8,0.9-1.5,0.9c-0.5,0-1-0.2-1.4-0.7c-0.4-0.5-0.5-1-0.5-1.7
			c0-0.7,0.2-1.3,0.5-1.8s0.8-0.7,1.4-0.7c0.6,0,1,0.3,1.4,0.8v-2.3H65.9z M65.2,58.9c0-0.4-0.1-0.7-0.4-1c-0.3-0.2-0.5-0.4-0.9-0.4
			c-0.4,0-0.7,0.2-0.9,0.5c-0.2,0.3-0.4,0.8-0.4,1.4c0,0.6,0.1,1.1,0.3,1.4s0.5,0.5,0.9,0.5c0.3,0,0.6-0.1,0.9-0.4
			c0.3-0.3,0.4-0.6,0.4-1V58.9z"/>
		<path class="st2" d="M70.4,60.4l0.7,0.1c-0.1,0.4-0.4,0.7-0.7,1c-0.4,0.3-0.8,0.4-1.3,0.4c-0.6,0-1.2-0.2-1.6-0.7
			c-0.4-0.5-0.6-1-0.6-1.8c0-0.7,0.2-1.3,0.6-1.8c0.4-0.5,0.9-0.7,1.5-0.7c0.6,0,1.1,0.2,1.5,0.6c0.4,0.4,0.6,1.1,0.6,1.9h-3.4
			c0,0.7,0.1,1.2,0.4,1.4c0.3,0.2,0.6,0.4,0.9,0.4C69.8,61.3,70.2,61,70.4,60.4z M70.4,59c0-0.3,0-0.5-0.1-0.7
			c-0.1-0.2-0.2-0.4-0.4-0.5c-0.2-0.1-0.4-0.2-0.7-0.2c-0.4,0-0.7,0.1-0.9,0.4s-0.4,0.6-0.4,1H70.4z"/>
		<path class="st2" d="M30.7,70.4l0.7,0.1c-0.1,0.4-0.4,0.7-0.7,1c-0.4,0.3-0.8,0.4-1.3,0.4c-0.6,0-1.2-0.2-1.6-0.7
			c-0.4-0.5-0.6-1-0.6-1.8c0-0.7,0.2-1.3,0.6-1.8c0.4-0.5,0.9-0.7,1.5-0.7c0.6,0,1.1,0.2,1.5,0.6c0.4,0.4,0.6,1.1,0.6,1.9H28
			c0,0.7,0.1,1.2,0.4,1.4c0.3,0.2,0.6,0.4,0.9,0.4C30,71.3,30.4,71,30.7,70.4z M30.6,69c0-0.3,0-0.5-0.1-0.7
			c-0.1-0.2-0.2-0.4-0.4-0.5c-0.2-0.1-0.4-0.2-0.7-0.2c-0.4,0-0.7,0.1-0.9,0.4s-0.4,0.6-0.4,1H30.6z"/>
		<path class="st2" d="M36.2,71.8h-0.7v-3c0-0.4-0.1-0.7-0.3-0.9c-0.2-0.2-0.4-0.3-0.7-0.3c-0.4,0-0.7,0.1-0.9,0.4s-0.4,0.7-0.4,1.2
			v2.6h-0.7v-4.7h0.7V68c0.4-0.7,0.9-1,1.5-1c0.3,0,0.6,0.1,0.9,0.3c0.2,0.2,0.4,0.4,0.5,0.6c0.1,0.2,0.1,0.6,0.1,1.2V71.8z"/>
		<path class="st2" d="M39.8,71.3v0.6c-0.3,0-0.5,0.1-0.7,0.1c-0.9,0-1.4-0.5-1.4-1.4v-2.8h-0.8v-0.6h0.8l0-1.2l0.7-0.1v1.2h1v0.6
			h-1v2.9c0,0.5,0.3,0.7,0.8,0.7C39.4,71.4,39.6,71.4,39.8,71.3z"/>
		<path class="st2" d="M41.3,71.8h-0.7v-4.7h0.6v1.1c0.2-0.5,0.5-0.9,0.7-1s0.5-0.2,0.7-0.2c0.1,0,0.2,0,0.3,0v0.7h-0.1
			c-0.4,0-0.7,0.1-1,0.4c-0.3,0.3-0.4,0.7-0.4,1.2V71.8z"/>
		<path class="st2" d="M47.4,71.8h-0.7c0-0.1-0.1-0.4-0.1-0.8c-0.3,0.6-0.9,1-1.6,1c-0.5,0-0.9-0.1-1.2-0.4c-0.3-0.3-0.4-0.6-0.4-1
			c0-0.5,0.2-0.9,0.6-1.2c0.4-0.3,1.1-0.5,2-0.5c0.1,0,0.3,0,0.6,0c0-0.4,0-0.6-0.1-0.8c-0.1-0.2-0.2-0.3-0.4-0.4s-0.4-0.1-0.7-0.1
			c-0.7,0-1.2,0.3-1.3,0.8l-0.7-0.1c0.2-0.9,0.9-1.3,2.1-1.3c0.6,0,1.1,0.1,1.4,0.4s0.4,0.8,0.4,1.5v2
			C47.3,71.2,47.3,71.5,47.4,71.8z M46.6,69.5c-0.3,0-0.5,0-0.7,0c-0.6,0-1,0.1-1.3,0.3c-0.3,0.2-0.5,0.5-0.5,0.8
			c0,0.2,0.1,0.4,0.3,0.6s0.4,0.2,0.7,0.2c0.4,0,0.8-0.2,1.1-0.5c0.3-0.3,0.4-0.7,0.4-1.1C46.6,69.7,46.6,69.6,46.6,69.5z"/>
		<path class="st2" d="M52.4,65.5v6.3h-0.7V71c-0.3,0.6-0.8,0.9-1.5,0.9c-0.5,0-1-0.2-1.4-0.7c-0.4-0.5-0.5-1-0.5-1.7
			c0-0.7,0.2-1.3,0.5-1.8s0.8-0.7,1.4-0.7c0.6,0,1,0.3,1.4,0.8v-2.3H52.4z M51.7,68.9c0-0.4-0.1-0.7-0.4-1c-0.3-0.2-0.5-0.4-0.9-0.4
			c-0.4,0-0.7,0.2-0.9,0.5c-0.2,0.3-0.4,0.8-0.4,1.4c0,0.6,0.1,1.1,0.3,1.4c0.2,0.3,0.5,0.5,0.9,0.5c0.3,0,0.6-0.1,0.9-0.4
			c0.3-0.3,0.4-0.6,0.4-1V68.9z"/>
		<path class="st2" d="M57.5,71.8h-0.7c0-0.1-0.1-0.4-0.1-0.8c-0.3,0.6-0.9,1-1.6,1c-0.5,0-0.9-0.1-1.2-0.4c-0.3-0.3-0.4-0.6-0.4-1
			c0-0.5,0.2-0.9,0.6-1.2c0.4-0.3,1.1-0.5,2-0.5c0.1,0,0.3,0,0.6,0c0-0.4,0-0.6-0.1-0.8c-0.1-0.2-0.2-0.3-0.4-0.4s-0.4-0.1-0.7-0.1
			c-0.7,0-1.2,0.3-1.3,0.8l-0.7-0.1c0.2-0.9,0.9-1.3,2.1-1.3c0.6,0,1.1,0.1,1.4,0.4s0.4,0.8,0.4,1.5v2
			C57.4,71.2,57.5,71.5,57.5,71.8z M56.7,69.5c-0.3,0-0.5,0-0.7,0c-0.6,0-1,0.1-1.3,0.3c-0.3,0.2-0.5,0.5-0.5,0.8
			c0,0.2,0.1,0.4,0.3,0.6s0.4,0.2,0.7,0.2c0.4,0,0.8-0.2,1.1-0.5c0.3-0.3,0.4-0.7,0.4-1.1C56.7,69.7,56.7,69.6,56.7,69.5z"/>
	</g>
</g>
</svg>
