<?xml version="1.0" encoding="utf-8"?>
<!-- Generator: Adobe Illustrator 22.1.0, SVG Export Plug-In . SVG Version: 6.00 Build 0)  -->
<svg version="1.1" id="Capa_1" xmlns="http://www.w3.org/2000/svg" xmlns:xlink="http://www.w3.org/1999/xlink" x="0px" y="0px"
	 viewBox="0 0 480 480" style="enable-background:new 0 0 480 480;" xml:space="preserve">
<style type="text/css">
	.st0{fill:#006DFF;}
	.st1{fill:#FFFFFF;}
</style>
<circle class="st0" cx="239.7" cy="239.5" r="236.7"/>
<g>
	<path class="st1" d="M308.8,195.2H170.6c-3.3,0-5.5,2.2-5.5,5.5s2.2,5.5,5.5,5.5h138.2c3.3,0,5.5-2.2,5.5-5.5
		S312.1,195.2,308.8,195.2z"/>
	<path class="st1" d="M170.6,162.1h55.3c3.3,0,5.5-2.2,5.5-5.5c0-3.3-2.2-5.5-5.5-5.5h-55.3c-3.3,0-5.5,2.2-5.5,5.5
		C165.1,159.9,167.3,162.1,170.6,162.1z"/>
	<path class="st1" d="M308.8,239.5H170.6c-3.3,0-5.5,2.2-5.5,5.5s2.2,5.5,5.5,5.5h138.2c3.3,0,5.5-2.2,5.5-5.5
		S312.1,239.5,308.8,239.5z"/>
	<path class="st1" d="M308.8,283.7H170.6c-3.3,0-5.5,2.2-5.5,5.5s2.2,5.5,5.5,5.5h138.2c3.3,0,5.5-2.2,5.5-5.5
		S312.1,283.7,308.8,283.7z"/>
	<path class="st1" d="M308.8,327.9H170.6c-3.3,0-5.5,2.2-5.5,5.5s2.2,5.5,5.5,5.5h138.2c3.3,0,5.5-2.2,5.5-5.5
		S312.1,327.9,308.8,327.9z"/>
	<path class="st1" d="M288.9,73.6H109.8v331.6h259.8V154.3L288.9,73.6z M292.2,92.4l58.6,58.6h-58.6V92.4z M120.9,394.2V84.7h160.3
		v77.4h77.4v232.1H120.9z"/>
</g>
</svg>
