<?xml version="1.0" encoding="utf-8"?>
<!-- Generator: Adobe Illustrator 21.1.0, SVG Export Plug-In . SVG Version: 6.00 Build 0)  -->
<svg version="1.1" id="Capa_1" xmlns="http://www.w3.org/2000/svg" xmlns:xlink="http://www.w3.org/1999/xlink" x="0px" y="0px"
	 viewBox="0 0 85 85" style="enable-background:new 0 0 85 85;" xml:space="preserve">
<style type="text/css">
	.st0{fill:#006DFF;}
	.st1{fill:none;stroke:#FFFFFF;stroke-width:1.5729;stroke-miterlimit:10;}
	.st2{fill:none;stroke:#FFFFFF;stroke-width:1.3841;stroke-miterlimit:10;}
	.st3{fill:#FFFFFF;}
</style>
<g>
	<rect class="st0" width="85" height="85"/>
	<g>
		<g>
			<g>
				<line class="st1" x1="44.2" y1="37.8" x2="48.9" y2="37.8"/>
				<rect x="37.5" y="36" class="st2" width="3" height="3"/>
			</g>
			<g>
				<polyline class="st1" points="37.8,20.3 35,23.1 33.3,21.4 				"/>
			</g>
			<circle class="st1" cx="43.2" cy="21.7" r="2.8"/>
			<path class="st1" d="M36.7,32c0-3.6,2.9-6.5,6.5-6.5s6.5,2.9,6.5,6.5"/>
		</g>
		<g>
			<path class="st3" d="M33.7,55.3h-0.8l-0.6-1.9h-2.3l-0.6,1.9h-0.7l2.1-6.3h0.9L33.7,55.3z M32.1,52.8l-1-3l-1,3H32.1z"/>
			<path class="st3" d="M35.2,55.3h-0.7v-6.3h0.7V55.3z"/>
			<path class="st3" d="M38.8,54.8v0.6c-0.3,0-0.5,0.1-0.7,0.1c-0.9,0-1.4-0.5-1.4-1.4v-2.8h-0.8v-0.6h0.8l0-1.2l0.7-0.1v1.2h1v0.6
				h-1v2.9c0,0.5,0.3,0.7,0.8,0.7C38.4,54.8,38.6,54.8,38.8,54.8z"/>
			<path class="st3" d="M43.3,55.3h-0.7c0-0.1-0.1-0.4-0.1-0.8c-0.3,0.6-0.9,1-1.6,1c-0.5,0-0.9-0.1-1.2-0.4c-0.3-0.3-0.4-0.6-0.4-1
				c0-0.5,0.2-0.9,0.6-1.2c0.4-0.3,1.1-0.5,2.1-0.5c0.1,0,0.3,0,0.6,0c0-0.4,0-0.6-0.1-0.8c-0.1-0.2-0.2-0.3-0.4-0.4
				S41.6,51,41.3,51c-0.7,0-1.2,0.3-1.3,0.8l-0.7-0.1c0.2-0.9,0.9-1.3,2.1-1.3c0.6,0,1.1,0.1,1.4,0.4c0.3,0.3,0.4,0.8,0.4,1.5v2
				C43.2,54.7,43.2,55,43.3,55.3z M42.5,52.9c-0.3,0-0.5,0-0.7,0c-0.6,0-1,0.1-1.3,0.3C40.1,53.4,40,53.7,40,54
				c0,0.2,0.1,0.4,0.3,0.6c0.2,0.2,0.4,0.2,0.7,0.2c0.4,0,0.8-0.2,1.1-0.5c0.3-0.3,0.4-0.7,0.4-1.1C42.5,53.2,42.5,53.1,42.5,52.9z"
				/>
			<path class="st3" d="M50.7,48.9v6.3H50v-0.8c-0.3,0.6-0.8,0.9-1.5,0.9c-0.5,0-1-0.2-1.4-0.7s-0.5-1-0.5-1.7
				c0-0.7,0.2-1.3,0.5-1.8s0.8-0.7,1.4-0.7c0.6,0,1,0.3,1.4,0.8v-2.3H50.7z M49.9,52.4c0-0.4-0.1-0.7-0.4-1C49.3,51.2,49,51,48.7,51
				c-0.4,0-0.7,0.2-0.9,0.5c-0.2,0.3-0.4,0.8-0.4,1.4c0,0.6,0.1,1.1,0.3,1.4c0.2,0.3,0.5,0.5,0.9,0.5c0.3,0,0.6-0.1,0.9-0.4
				c0.3-0.3,0.4-0.6,0.4-1V52.4z"/>
			<path class="st3" d="M55.2,53.9l0.7,0.1c-0.1,0.4-0.4,0.7-0.7,1c-0.4,0.3-0.8,0.4-1.3,0.4c-0.6,0-1.2-0.2-1.6-0.7s-0.6-1-0.6-1.8
				c0-0.7,0.2-1.3,0.6-1.8c0.4-0.5,0.9-0.7,1.5-0.7c0.6,0,1.1,0.2,1.5,0.6S56,52.2,56,53h-3.4c0,0.7,0.1,1.2,0.4,1.4
				c0.3,0.2,0.6,0.4,0.9,0.4C54.5,54.8,55,54.5,55.2,53.9z M55.2,52.5c0-0.3,0-0.5-0.1-0.7c-0.1-0.2-0.2-0.4-0.4-0.5
				c-0.2-0.1-0.4-0.2-0.7-0.2c-0.4,0-0.7,0.1-0.9,0.4s-0.4,0.6-0.4,1H55.2z"/>
			<path class="st3" d="M17.8,65.3h-0.4v-6.3h0.7v2.4c0.3-0.6,0.8-0.9,1.4-0.9c0.5,0,1,0.2,1.4,0.6s0.5,1,0.5,1.8
				c0,0.7-0.2,1.3-0.5,1.8c-0.4,0.5-0.8,0.7-1.4,0.7c-0.6,0-1.1-0.3-1.5-0.9L17.8,65.3z M18.2,63.4c0,0.5,0.2,0.8,0.4,1
				c0.3,0.2,0.5,0.3,0.8,0.3c0.4,0,0.7-0.2,0.9-0.5c0.2-0.3,0.3-0.8,0.3-1.3c0-0.6-0.1-1.1-0.3-1.4c-0.2-0.3-0.5-0.5-0.9-0.5
				c-0.3,0-0.6,0.1-0.8,0.4c-0.2,0.2-0.4,0.6-0.4,1V63.4z"/>
			<path class="st3" d="M25.7,63.9l0.7,0.1c-0.1,0.4-0.4,0.7-0.7,1c-0.4,0.3-0.8,0.4-1.3,0.4c-0.6,0-1.2-0.2-1.6-0.7s-0.6-1-0.6-1.8
				c0-0.7,0.2-1.3,0.6-1.8c0.4-0.5,0.9-0.7,1.5-0.7c0.6,0,1.1,0.2,1.5,0.6s0.6,1.1,0.6,1.9H23c0,0.7,0.1,1.2,0.4,1.4
				c0.3,0.2,0.6,0.4,0.9,0.4C25,64.8,25.4,64.5,25.7,63.9z M25.6,62.5c0-0.3,0-0.5-0.1-0.7c-0.1-0.2-0.2-0.4-0.4-0.5
				c-0.2-0.1-0.4-0.2-0.7-0.2c-0.4,0-0.7,0.1-0.9,0.4s-0.4,0.6-0.4,1H25.6z"/>
			<path class="st3" d="M31.2,65.3h-0.7v-3c0-0.4-0.1-0.7-0.3-0.9c-0.2-0.2-0.4-0.3-0.7-0.3c-0.4,0-0.7,0.1-0.9,0.4
				s-0.4,0.7-0.4,1.2v2.6h-0.7v-4.7h0.7v0.9c0.4-0.7,0.9-1,1.5-1c0.3,0,0.6,0.1,0.9,0.3c0.2,0.2,0.4,0.4,0.5,0.6s0.1,0.6,0.1,1.2
				V65.3z"/>
			<path class="st3" d="M35.8,63.9l0.7,0.1c-0.1,0.4-0.4,0.7-0.7,1c-0.4,0.3-0.8,0.4-1.3,0.4c-0.6,0-1.2-0.2-1.6-0.7s-0.6-1-0.6-1.8
				c0-0.7,0.2-1.3,0.6-1.8c0.4-0.5,0.9-0.7,1.5-0.7c0.6,0,1.1,0.2,1.5,0.6s0.6,1.1,0.6,1.9h-3.4c0,0.7,0.1,1.2,0.4,1.4
				c0.3,0.2,0.6,0.4,0.9,0.4C35.1,64.8,35.5,64.5,35.8,63.9z M35.7,62.5c0-0.3,0-0.5-0.1-0.7c-0.1-0.2-0.2-0.4-0.4-0.5
				C35,61.1,34.8,61,34.5,61c-0.4,0-0.7,0.1-0.9,0.4s-0.4,0.6-0.4,1H35.7z"/>
			<path class="st3" d="M39.6,60.6v0.6h-1.1v4.1h-0.7v-4.1h-0.8v-0.6h0.8c0-0.8,0.2-1.2,0.4-1.5c0.3-0.2,0.6-0.3,1-0.3
				c0.2,0,0.4,0,0.7,0.1v0.6c-0.2,0-0.3-0.1-0.4-0.1c-0.3,0-0.6,0.1-0.7,0.2c-0.2,0.1-0.2,0.4-0.2,0.8v0.2H39.6z"/>
			<path class="st3" d="M41.3,58.9v0.8h-0.8v-0.8H41.3z M41.2,60.6v4.7h-0.7v-4.7H41.2z"/>
			<path class="st3" d="M45.5,63.6l0.7,0.1c-0.1,0.5-0.3,0.9-0.6,1.2c-0.3,0.3-0.7,0.4-1.2,0.4c-0.6,0-1.1-0.2-1.5-0.7
				c-0.3-0.5-0.5-1.1-0.5-1.7c0-0.7,0.2-1.3,0.5-1.8c0.4-0.5,0.8-0.7,1.5-0.7c0.5,0,0.9,0.2,1.2,0.5c0.3,0.3,0.5,0.7,0.6,1.2
				l-0.7,0.1c-0.1-0.8-0.5-1.2-1.1-1.2c-0.4,0-0.7,0.2-0.9,0.5c-0.2,0.3-0.3,0.8-0.3,1.3c0,0.6,0.1,1.1,0.3,1.4
				c0.2,0.3,0.5,0.5,0.9,0.5C44.9,64.8,45.3,64.4,45.5,63.6z"/>
			<path class="st3" d="M47.9,58.9v0.8h-0.8v-0.8H47.9z M47.9,60.6v4.7h-0.7v-4.7H47.9z"/>
			<path class="st3" d="M53,65.3h-0.7c0-0.1-0.1-0.4-0.1-0.8c-0.3,0.6-0.9,1-1.6,1c-0.5,0-0.9-0.1-1.2-0.4c-0.3-0.3-0.4-0.6-0.4-1
				c0-0.5,0.2-0.9,0.6-1.2c0.4-0.3,1.1-0.5,2.1-0.5c0.1,0,0.3,0,0.6,0c0-0.4,0-0.6-0.1-0.8c-0.1-0.2-0.2-0.3-0.4-0.4S51.3,61,51,61
				c-0.7,0-1.2,0.3-1.3,0.8L49,61.8c0.2-0.9,0.9-1.3,2.1-1.3c0.6,0,1.1,0.1,1.4,0.4c0.3,0.3,0.4,0.8,0.4,1.5v2
				C52.9,64.7,52.9,65,53,65.3z M52.2,62.9c-0.3,0-0.5,0-0.7,0c-0.6,0-1,0.1-1.3,0.3c-0.3,0.2-0.5,0.5-0.5,0.8
				c0,0.2,0.1,0.4,0.3,0.6c0.2,0.2,0.4,0.2,0.7,0.2c0.4,0,0.8-0.2,1.1-0.5c0.3-0.3,0.4-0.7,0.4-1.1C52.2,63.2,52.2,63.1,52.2,62.9z"
				/>
			<path class="st3" d="M55.1,65.3h-0.7v-4.7H55v1.1c0.2-0.5,0.5-0.9,0.7-1c0.2-0.2,0.5-0.2,0.7-0.2c0.1,0,0.2,0,0.3,0v0.7h-0.1
				c-0.4,0-0.7,0.1-1,0.4s-0.4,0.7-0.4,1.2V65.3z"/>
			<path class="st3" d="M58.2,58.9v0.8h-0.8v-0.8H58.2z M58.2,60.6v4.7h-0.7v-4.7H58.2z"/>
			<path class="st3" d="M61.3,65.4c-0.6,0-1.1-0.2-1.5-0.7c-0.4-0.5-0.5-1.1-0.5-1.8c0-0.7,0.2-1.3,0.6-1.8c0.4-0.4,0.9-0.7,1.5-0.7
				c0.6,0,1.2,0.2,1.5,0.7c0.4,0.5,0.6,1.1,0.6,1.8c0,0.7-0.2,1.3-0.6,1.8C62.5,65.2,62,65.4,61.3,65.4z M61.4,64.8
				c0.4,0,0.7-0.2,0.9-0.5c0.3-0.3,0.4-0.8,0.4-1.4c0-0.6-0.1-1.1-0.4-1.4s-0.6-0.4-0.9-0.4c-0.4,0-0.7,0.1-0.9,0.4
				c-0.3,0.3-0.4,0.8-0.4,1.4c0,0.7,0.1,1.2,0.4,1.5C60.7,64.7,61,64.8,61.4,64.8z"/>
			<path class="st3" d="M63.9,64.1l0.7-0.1c0.2,0.6,0.6,0.9,1.5,0.9c0.3,0,0.6-0.1,0.8-0.2c0.2-0.1,0.3-0.3,0.3-0.6
				c0-0.4-0.3-0.6-0.8-0.7l-1-0.2c-0.4-0.1-0.7-0.2-0.9-0.4c-0.2-0.2-0.3-0.5-0.3-0.9c0-0.4,0.2-0.7,0.5-1c0.3-0.3,0.7-0.4,1.3-0.4
				c1,0,1.6,0.4,1.9,1.2l-0.7,0.1c-0.2-0.5-0.6-0.7-1.2-0.7c-0.3,0-0.5,0.1-0.7,0.2c-0.2,0.1-0.3,0.3-0.3,0.5c0,0.3,0.2,0.6,0.7,0.7
				l0.9,0.2c1,0.2,1.4,0.6,1.4,1.4c0,0.4-0.2,0.8-0.5,1c-0.4,0.3-0.8,0.4-1.4,0.4C64.9,65.4,64.2,65,63.9,64.1z"/>
		</g>
	</g>
</g>
</svg>
