<?xml version="1.0" encoding="utf-8"?>
<!-- Generator: Adobe Illustrator 22.1.0, SVG Export Plug-In . SVG Version: 6.00 Build 0)  -->
<svg version="1.1" id="Capa_1" xmlns="http://www.w3.org/2000/svg" xmlns:xlink="http://www.w3.org/1999/xlink" x="0px" y="0px"
	 viewBox="0 0 480 480" style="enable-background:new 0 0 480 480;" xml:space="preserve">
<style type="text/css">
	.st0{fill:#006DFF;}
	.st1{fill:#FFFFFF;}
</style>
<circle class="st0" cx="240.2" cy="239.6" r="236.7"/>
<g>
	<g>
		<g>
			<path class="st1" d="M106.8,180.8c-1.3-1.3-3-2-4.8-2s-3.6,0.7-4.8,2s-2,3-2,4.8c0,1.8,0.7,3.6,2,4.8c1.3,1.3,3,2,4.8,2
				s3.6-0.7,4.8-2c1.3-1.3,2-3,2-4.8C108.8,183.8,108.1,182,106.8,180.8z"/>
		</g>
	</g>
	<g>
		<g>
			<path class="st1" d="M364.7,64.5H226.3c-3.8,0-6.8,3.1-6.8,6.8c0,3.8,3.1,6.8,6.8,6.8h138.4c3.8,0,6.8,3.1,6.8,6.8v309.2
				c0,3.8-3.1,6.8-6.8,6.8h-249c-3.8,0-6.8-3.1-6.8-6.8V211.1c0-3.8-3.1-6.8-6.8-6.8s-6.8,3.1-6.8,6.8v183.1
				c0,11.3,9.2,20.5,20.5,20.5h249c11.3,0,20.5-9.2,20.5-20.5V85C385.2,73.7,376,64.5,364.7,64.5z"/>
		</g>
	</g>
	<g>
		<g>
			<path class="st1" d="M240.2,91.9c-4.7,0-9.3,0.4-13.9,1.1c-3.7,0.6-6.3,4.1-5.7,7.8c0.6,3.7,4.1,6.3,7.8,5.7
				c3.9-0.6,7.9-0.9,11.8-0.9c42.6,0,77.3,34.7,77.3,77.3c0,18.9-6.8,36.3-18.2,49.7c-5-8.6-11.9-16.1-20.2-21.8
				c-4.9-3.4-10.1-6.1-15.5-8c6.2-6.1,10.1-14.6,10.1-24v-6.7c0-18.5-15-33.5-33.5-33.5s-33.5,15-33.5,33.5v6.7
				c0,9.4,3.9,17.9,10.1,24c-5.5,2-10.7,4.7-15.5,8c-8.4,5.8-15.2,13.3-20.3,22c-8.6-10.3-14.7-22.9-17-37c-0.6-3.7-4.2-6.2-7.9-5.6
				c-3.7,0.6-6.2,4.2-5.6,7.9c3.5,21,14.4,40.2,30.7,54.1c16.4,14,37.4,21.8,59.1,21.8c50.2,0,91-40.8,91-91S290.4,91.9,240.2,91.9z
				 M220.3,172.1c0-10.9,8.9-19.8,19.8-19.8c10.9,0,19.8,8.9,19.8,19.8v6.7c0,10.9-8.9,19.8-19.8,19.8c-10.9,0-19.8-8.9-19.8-19.8
				V172.1z M240.2,260.2c-18.5,0-35.6-6.5-49-17.4c9.2-18.6,28-30.5,49-30.5c21,0,39.8,11.8,49,30.3
				C275.8,253.6,258.8,260.2,240.2,260.2z"/>
		</g>
	</g>
	<g>
		<g>
			<path class="st1" d="M303.4,336.8h-97.1c-3.8,0-6.8,3.1-6.8,6.8s3.1,6.8,6.8,6.8h97.1c3.8,0,6.8-3.1,6.8-6.8
				S307.1,336.8,303.4,336.8z"/>
		</g>
	</g>
	<g>
		<g>
			<path class="st1" d="M181.8,300.5c-1.3-1.3-3-2-4.8-2c-1.8,0-3.6,0.7-4.8,2s-2,3-2,4.8c0,1.8,0.7,3.6,2,4.8c1.3,1.3,3,2,4.8,2
				c1.8,0,3.6-0.7,4.8-2c1.3-1.3,2-3,2-4.8C183.8,303.5,183.1,301.8,181.8,300.5z"/>
		</g>
	</g>
	<g>
		<g>
			<path class="st1" d="M181.8,338.8c-1.3-1.3-3-2-4.8-2c-1.8,0-3.6,0.7-4.8,2s-2,3-2,4.8c0,1.8,0.7,3.6,2,4.8c1.3,1.3,3,2,4.8,2
				c1.8,0,3.6-0.7,4.8-2c1.3-1.3,2-3,2-4.8C183.8,341.8,183.1,340.1,181.8,338.8z"/>
		</g>
	</g>
	<g>
		<g>
			<path class="st1" d="M303.4,298.5h-97.1c-3.8,0-6.8,3.1-6.8,6.8s3.1,6.8,6.8,6.8h97.1c3.8,0,6.8-3.1,6.8-6.8
				S307.1,298.5,303.4,298.5z"/>
		</g>
	</g>
	<g>
		<g>
			<path class="st1" d="M175.6,103.9c-2.7-2.7-7-2.7-9.7,0l-22.3,22.3l-7.6-7.6c-2.7-2.7-7-2.7-9.7,0c-2.7,2.7-2.7,7,0,9.7
				l12.5,12.5c1.3,1.3,3.1,2,4.8,2s3.5-0.7,4.8-2l27.1-27.1C178.3,110.9,178.3,106.6,175.6,103.9z"/>
		</g>
	</g>
	<g>
		<g>
			<path class="st1" d="M151.2,64.5c-30.9,0-56.1,25.2-56.1,56.1s25.2,56.1,56.1,56.1s56.1-25.2,56.1-56.1S182.2,64.5,151.2,64.5z
				 M151.2,163c-23.4,0-42.4-19-42.4-42.4s19-42.4,42.4-42.4s42.4,19,42.4,42.4S174.6,163,151.2,163z"/>
		</g>
	</g>
</g>
</svg>
