<?xml version="1.0" encoding="utf-8"?>
<!-- Generator: Adobe Illustrator 22.1.0, SVG Export Plug-In . SVG Version: 6.00 Build 0)  -->
<svg version="1.1" id="Capa_1" xmlns="http://www.w3.org/2000/svg" xmlns:xlink="http://www.w3.org/1999/xlink" x="0px" y="0px"
	 viewBox="0 0 480 480" style="enable-background:new 0 0 480 480;" xml:space="preserve">
<style type="text/css">
	.st0{fill:#006DFF;}
	.st1{fill:#FFFFFF;}
</style>
<circle class="st0" cx="240.4" cy="239.5" r="236.7"/>
<g>
	<g>
		<g>
			<path class="st1" d="M267.7,100.8c8.2-7.4,13.4-18.1,13.4-30c0-22.4-18.2-40.7-40.7-40.7s-40.7,18.2-40.7,40.7
				c0,11.9,5.2,22.6,13.4,30c-24.1,4.6-42.4,25.9-42.4,51.3v23.2c0,3.2,2.6,5.8,5.8,5.8h127.8c3.2,0,5.8-2.6,5.8-5.8v-23.2
				C310.1,126.8,291.8,105.5,267.7,100.8z M211.3,70.8c0-16,13-29,29-29s29,13,29,29s-13,29-29,29S211.3,86.9,211.3,70.8z
				 M298.5,169.6H182.3v-17.4c0-22.4,18.2-40.7,40.7-40.7h34.9c22.4,0,40.7,18.2,40.7,40.7V169.6z"/>
		</g>
	</g>
	<g>
		<g>
			<path class="st1" d="M163.1,298.4c8.1-7.4,13.4-18.2,13.4-30c0-22.4-18.2-40.7-40.7-40.7s-40.7,18.2-40.7,40.7
				c0,11.9,5.2,22.6,13.4,30c-24.1,4.6-42.4,25.9-42.4,51.3v23.2c0,3.2,2.6,5.8,5.8,5.8h127.8c3.2,0,5.8-2.6,5.8-5.8v-23.2
				C205.5,324.3,187.2,303,163.1,298.4z M106.7,268.4c0-16,13-29,29-29s29,13,29,29c0,16-13,29-29,29S106.7,284.4,106.7,268.4z
				 M193.9,367.1H77.7v-17.4c0-22.4,18.2-40.7,40.7-40.7h34.9c22.4,0,40.7,18.2,40.7,40.7V367.1z"/>
		</g>
	</g>
	<g>
		<g>
			<path class="st1" d="M372.2,298.4c8.1-7.4,13.4-18.2,13.4-30c0-22.4-18.2-40.7-40.7-40.7c-22.4,0-40.7,18.2-40.7,40.7
				c0,11.9,5.2,22.6,13.4,30c-24.1,4.6-42.4,25.9-42.4,51.3v23.2c0,3.2,2.6,5.8,5.8,5.8h127.8c3.2,0,5.8-2.6,5.8-5.8v-23.2
				C414.7,324.3,396.4,303,372.2,298.4z M315.9,268.4c0-16,13-29,29-29c16,0,29,13,29,29c0,16-13,29-29,29
				C328.9,297.4,315.9,284.4,315.9,268.4z M403,367.1H286.8v-17.4c0-22.4,18.2-40.7,40.7-40.7h34.9c22.4,0,40.7,18.2,40.7,40.7
				V367.1z"/>
		</g>
	</g>
	<g>
		<g>
			<path class="st1" d="M101.1,215.9l-11.6,0.4c0.1,4,0.5,8.1,0.9,12.1l11.5-1.4C101.5,223.3,101.2,219.6,101.1,215.9z"/>
		</g>
	</g>
	<g>
		<g>
			<path class="st1" d="M90.4,192.3c-0.4,4-0.8,8-0.9,12.1l11.6,0.4c0.1-3.7,0.4-7.5,0.9-11.1L90.4,192.3z"/>
		</g>
	</g>
	<g>
		<g>
			<path class="st1" d="M148.8,90.1c-3.2,2.4-6.3,5-9.3,7.7l7.8,8.6c2.8-2.5,5.7-4.9,8.6-7.1L148.8,90.1z"/>
		</g>
	</g>
	<g>
		<g>
			<path class="st1" d="M103.6,145.9c-1.7,3.6-3.3,7.4-4.7,11.1l10.9,4.1c1.3-3.5,2.8-6.9,4.4-10.2L103.6,145.9z"/>
		</g>
	</g>
	<g>
		<g>
			<path class="st1" d="M95.1,168.6c-1.1,3.8-2,7.8-2.8,11.8l11.4,2.3c0.7-3.6,1.6-7.3,2.6-10.8L95.1,168.6z"/>
		</g>
	</g>
	<g>
		<g>
			<path class="st1" d="M130.8,106.3c-2.8,2.9-5.4,6-8,9.1l9,7.3c2.3-2.8,4.8-5.7,7.3-8.4L130.8,106.3z"/>
		</g>
	</g>
	<g>
		<g>
			<path class="st1" d="M169.1,77.1c-3.5,1.9-7,3.9-10.5,6.1L165,93c3.1-2,6.4-3.9,9.6-5.7L169.1,77.1z"/>
		</g>
	</g>
	<g>
		<g>
			<path class="st1" d="M115.7,125c-2.3,3.3-4.4,6.8-6.4,10.2l10.1,5.8c1.8-3.2,3.8-6.4,6-9.4L115.7,125z"/>
		</g>
	</g>
	<g>
		<g>
			<path class="st1" d="M212.8,347l-2.3,11.4c3.9,0.8,7.9,1.5,11.9,1.9l1.4-11.5C220.2,348.3,216.5,347.7,212.8,347z"/>
		</g>
	</g>
	<g>
		<g>
			<path class="st1" d="M268.2,346.9c-3.6,0.7-7.3,1.3-11,1.8l1.4,11.5c4-0.5,8-1.2,11.9-2L268.2,346.9z"/>
		</g>
	</g>
	<g>
		<g>
			<path class="st1" d="M246.1,349.6c-3.7,0.1-7.5,0.1-11.2,0l-0.4,11.6c2,0.1,3.9,0.1,5.9,0.1c2.1,0,4.1-0.1,6.2-0.1L246.1,349.6z"
				/>
		</g>
	</g>
	<g>
		<g>
			<path class="st1" d="M341.2,97.9l-7.8,8.6c2.8,2.5,5.4,5.1,8,7.8l8.4-8C347.2,103.4,344.3,100.5,341.2,97.9z"/>
		</g>
	</g>
	<g>
		<g>
			<path class="st1" d="M357.9,115.4l-9,7.3c2.3,2.8,4.6,5.9,6.7,8.9l9.6-6.5C362.8,121.7,360.4,118.5,357.9,115.4z"/>
		</g>
	</g>
	<g>
		<g>
			<path class="st1" d="M391.3,204.3l-11.6,0.4c0.1,1.8,0.1,3.7,0.1,5.5c0,1.9,0,3.8-0.1,5.7l11.6,0.4c0.1-2,0.1-4.1,0.1-6.1
				C391.4,208.2,391.3,206.3,391.3,204.3z"/>
		</g>
	</g>
	<g>
		<g>
			<path class="st1" d="M371.5,135.3l-10.1,5.8c1.8,3.2,3.6,6.5,5.2,9.9l10.5-4.9C375.4,142.4,373.6,138.7,371.5,135.3z"/>
		</g>
	</g>
	<g>
		<g>
			<path class="st1" d="M381.8,157.1l-10.9,4.1c1.3,3.5,2.5,7,3.5,10.6l11.2-3.2C384.5,164.7,383.2,160.9,381.8,157.1z"/>
		</g>
	</g>
	<g>
		<g>
			<path class="st1" d="M388.4,180.3l-11.4,2.3c0.7,3.6,1.3,7.3,1.7,11l11.5-1.4C389.9,188.3,389.2,184.3,388.4,180.3z"/>
		</g>
	</g>
	<g>
		<g>
			<path class="st1" d="M322.1,83.2l-6.3,9.8c3.1,2,6.2,4.1,9.2,6.4l7-9.2C328.7,87.7,325.5,85.4,322.1,83.2z"/>
		</g>
	</g>
	<g>
		<g>
			<path class="st1" d="M300.8,71.8l-4.6,10.7c3.4,1.5,6.8,3.1,10,4.9l5.5-10.2C308.1,75.2,304.5,73.4,300.8,71.8z"/>
		</g>
	</g>
</g>
</svg>
