<?xml version="1.0" encoding="utf-8"?>
<!-- Generator: Adobe Illustrator 21.1.0, SVG Export Plug-In . SVG Version: 6.00 Build 0)  -->
<svg version="1.1" id="Capa_1" xmlns="http://www.w3.org/2000/svg" xmlns:xlink="http://www.w3.org/1999/xlink" x="0px" y="0px"
	 viewBox="0 0 85 85" style="enable-background:new 0 0 85 85;" xml:space="preserve">
<style type="text/css">
	.st0{fill:#006DFF;}
	.st1{fill:none;stroke:#FFFFFF;stroke-width:1.5729;stroke-miterlimit:10;}
	.st2{fill:#FFFFFF;}
</style>
<g>
	<rect class="st0" width="85" height="85"/>
	<g>
		<g>
			<circle class="st1" cx="43.1" cy="21.8" r="2.8"/>
			<path class="st1" d="M36.6,32.1c0-3.6,2.9-6.5,6.5-6.5s6.5,2.9,6.5,6.5"/>
		</g>
		<g>
			<circle class="st1" cx="33.7" cy="31.8" r="2.8"/>
			<path class="st1" d="M27.2,42.1c0-3.6,2.9-6.5,6.5-6.5s6.5,2.9,6.5,6.5"/>
		</g>
		<g>
			<circle class="st1" cx="52.5" cy="31.8" r="2.8"/>
			<path class="st1" d="M45.9,42.1c0-3.6,2.9-6.5,6.5-6.5s6.5,2.9,6.5,6.5"/>
		</g>
	</g>
	<g>
		<path class="st2" d="M16.4,55.4v-6.3h2.1c0.9,0,1.6,0.3,2.1,0.9c0.5,0.6,0.7,1.4,0.7,2.2c0,0.9-0.2,1.6-0.7,2.3
			c-0.5,0.6-1.1,0.9-1.8,0.9H16.4z M17.1,54.7h1.3c0.7,0,1.2-0.2,1.5-0.7c0.4-0.5,0.5-1.1,0.5-1.9c0-0.6-0.2-1.2-0.5-1.7
			c-0.3-0.5-0.9-0.7-1.6-0.7h-1.3V54.7z"/>
		<path class="st2" d="M23.2,49.1v0.8h-0.8v-0.8H23.2z M23.2,50.7v4.7h-0.7v-4.7H23.2z"/>
		<path class="st2" d="M24,54.2l0.7-0.1c0.2,0.6,0.6,0.9,1.5,0.9c0.3,0,0.6-0.1,0.8-0.2c0.2-0.1,0.3-0.3,0.3-0.6
			c0-0.4-0.3-0.6-0.8-0.7l-1-0.2c-0.4-0.1-0.7-0.2-0.9-0.4c-0.2-0.2-0.3-0.5-0.3-0.9c0-0.4,0.2-0.7,0.5-1c0.3-0.3,0.7-0.4,1.3-0.4
			c1,0,1.6,0.4,1.9,1.2l-0.7,0.1c-0.2-0.5-0.6-0.7-1.2-0.7c-0.3,0-0.5,0.1-0.7,0.2c-0.2,0.1-0.3,0.3-0.3,0.5c0,0.3,0.2,0.6,0.7,0.7
			l0.9,0.2c1,0.2,1.4,0.6,1.4,1.4c0,0.4-0.2,0.8-0.5,1c-0.4,0.3-0.8,0.4-1.4,0.4C24.9,55.5,24.2,55.1,24,54.2z"/>
		<path class="st2" d="M29.8,57H29v-6.3h0.7v0.9c0.3-0.7,0.8-1,1.5-1c0.6,0,1,0.2,1.3,0.7c0.3,0.5,0.5,1,0.5,1.8
			c0,0.8-0.2,1.4-0.5,1.8c-0.3,0.4-0.8,0.7-1.3,0.7c-0.6,0-1.1-0.3-1.4-0.8V57z M29.8,52.4v1.3c0,0.4,0.2,0.6,0.4,0.9
			c0.3,0.2,0.5,0.3,0.8,0.3c0.3,0,0.6-0.1,0.8-0.4c0.2-0.3,0.4-0.8,0.4-1.4c0-0.6-0.1-1-0.3-1.4s-0.5-0.5-0.9-0.5
			c-0.3,0-0.6,0.1-0.8,0.3C30,51.8,29.8,52,29.8,52.4z"/>
		<path class="st2" d="M37.2,54l0.7,0.1c-0.1,0.4-0.4,0.7-0.7,1c-0.4,0.3-0.8,0.4-1.3,0.4c-0.6,0-1.2-0.2-1.6-0.7s-0.6-1-0.6-1.8
			c0-0.7,0.2-1.3,0.6-1.8c0.4-0.5,0.9-0.7,1.5-0.7c0.6,0,1.1,0.2,1.5,0.6s0.6,1.1,0.6,1.9h-3.4c0,0.7,0.1,1.2,0.4,1.4
			c0.3,0.2,0.6,0.4,0.9,0.4C36.5,54.9,36.9,54.6,37.2,54z M37.1,52.6c0-0.3,0-0.5-0.1-0.7c-0.1-0.2-0.2-0.4-0.4-0.5
			c-0.2-0.1-0.4-0.2-0.7-0.2c-0.4,0-0.7,0.1-0.9,0.4s-0.4,0.6-0.4,1H37.1z"/>
		<path class="st2" d="M39.8,55.4H39v-4.7h0.6v1.1c0.2-0.5,0.5-0.9,0.7-1c0.2-0.2,0.5-0.2,0.7-0.2c0.1,0,0.2,0,0.3,0v0.7h-0.1
			c-0.4,0-0.7,0.1-1,0.4s-0.4,0.7-0.4,1.2V55.4z"/>
		<path class="st2" d="M41.6,54.2l0.7-0.1c0.2,0.6,0.6,0.9,1.5,0.9c0.3,0,0.6-0.1,0.8-0.2c0.2-0.1,0.3-0.3,0.3-0.6
			c0-0.4-0.3-0.6-0.8-0.7l-1-0.2c-0.4-0.1-0.7-0.2-0.9-0.4c-0.2-0.2-0.3-0.5-0.3-0.9c0-0.4,0.2-0.7,0.5-1c0.3-0.3,0.7-0.4,1.3-0.4
			c1,0,1.6,0.4,1.9,1.2l-0.7,0.1c-0.2-0.5-0.6-0.7-1.2-0.7c-0.3,0-0.5,0.1-0.7,0.2c-0.2,0.1-0.3,0.3-0.3,0.5c0,0.3,0.2,0.6,0.7,0.7
			l0.9,0.2c1,0.2,1.4,0.6,1.4,1.4c0,0.4-0.2,0.8-0.5,1c-0.4,0.3-0.8,0.4-1.4,0.4C42.5,55.5,41.9,55.1,41.6,54.2z"/>
		<path class="st2" d="M47.4,49.1v0.8h-0.8v-0.8H47.4z M47.4,50.7v4.7h-0.7v-4.7H47.4z"/>
		<path class="st2" d="M50.5,55.5c-0.6,0-1.1-0.2-1.5-0.7c-0.4-0.5-0.5-1.1-0.5-1.8c0-0.7,0.2-1.3,0.6-1.8c0.4-0.4,0.9-0.7,1.5-0.7
			c0.6,0,1.2,0.2,1.5,0.7c0.4,0.5,0.6,1.1,0.6,1.8c0,0.7-0.2,1.3-0.6,1.8C51.7,55.3,51.1,55.5,50.5,55.5z M50.5,54.9
			c0.4,0,0.7-0.2,0.9-0.5c0.3-0.3,0.4-0.8,0.4-1.4c0-0.6-0.1-1.1-0.4-1.4s-0.6-0.4-0.9-0.4c-0.4,0-0.7,0.1-0.9,0.4
			c-0.3,0.3-0.4,0.8-0.4,1.4c0,0.7,0.1,1.2,0.4,1.5C49.9,54.8,50.2,54.9,50.5,54.9z M51.9,49.1L50,50l-0.2-0.4l1.8-1.1L51.9,49.1z"
			/>
		<path class="st2" d="M57.4,55.4h-0.7v-3c0-0.4-0.1-0.7-0.3-0.9c-0.2-0.2-0.4-0.3-0.7-0.3c-0.4,0-0.7,0.1-0.9,0.4s-0.4,0.7-0.4,1.2
			v2.6h-0.7v-4.7h0.7v0.9c0.4-0.7,0.9-1,1.5-1c0.3,0,0.6,0.1,0.9,0.3c0.2,0.2,0.4,0.4,0.5,0.6s0.1,0.6,0.1,1.2V55.4z"/>
		<path class="st2" d="M64.9,49.1v6.3h-0.7v-0.8c-0.3,0.6-0.8,0.9-1.5,0.9c-0.5,0-1-0.2-1.4-0.7s-0.5-1-0.5-1.7
			c0-0.7,0.2-1.3,0.5-1.8s0.8-0.7,1.4-0.7c0.6,0,1,0.3,1.4,0.8v-2.3H64.9z M64.2,52.5c0-0.4-0.1-0.7-0.4-1c-0.3-0.2-0.5-0.4-0.9-0.4
			c-0.4,0-0.7,0.2-0.9,0.5c-0.2,0.3-0.4,0.8-0.4,1.4c0,0.6,0.1,1.1,0.3,1.4c0.2,0.3,0.5,0.5,0.9,0.5c0.3,0,0.6-0.1,0.9-0.4
			c0.3-0.3,0.4-0.6,0.4-1V52.5z"/>
		<path class="st2" d="M69.5,54l0.7,0.1c-0.1,0.4-0.4,0.7-0.7,1c-0.4,0.3-0.8,0.4-1.3,0.4c-0.6,0-1.2-0.2-1.6-0.7s-0.6-1-0.6-1.8
			c0-0.7,0.2-1.3,0.6-1.8c0.4-0.5,0.9-0.7,1.5-0.7c0.6,0,1.1,0.2,1.5,0.6s0.6,1.1,0.6,1.9h-3.4c0,0.7,0.1,1.2,0.4,1.4
			c0.3,0.2,0.6,0.4,0.9,0.4C68.8,54.9,69.2,54.6,69.5,54z M69.4,52.6c0-0.3,0-0.5-0.1-0.7c-0.1-0.2-0.2-0.4-0.4-0.5
			c-0.2-0.1-0.4-0.2-0.7-0.2c-0.4,0-0.7,0.1-0.9,0.4s-0.4,0.6-0.4,1H69.4z"/>
		<path class="st2" d="M32.5,67h-0.7v-6.3h0.7v0.9c0.3-0.7,0.8-1,1.5-1c0.6,0,1,0.2,1.3,0.7c0.3,0.5,0.5,1,0.5,1.8
			c0,0.8-0.2,1.4-0.5,1.8c-0.3,0.4-0.8,0.7-1.3,0.7c-0.6,0-1.1-0.3-1.4-0.8V67z M32.5,62.4v1.3c0,0.4,0.2,0.6,0.4,0.9
			c0.3,0.2,0.5,0.3,0.8,0.3c0.3,0,0.6-0.1,0.8-0.4c0.2-0.3,0.4-0.8,0.4-1.4c0-0.6-0.1-1-0.3-1.4s-0.5-0.5-0.9-0.5
			c-0.3,0-0.6,0.1-0.8,0.3C32.7,61.8,32.6,62,32.5,62.4z"/>
		<path class="st2" d="M40.5,65.4h-0.7c0-0.1-0.1-0.4-0.1-0.8c-0.3,0.6-0.9,1-1.6,1c-0.5,0-0.9-0.1-1.2-0.4c-0.3-0.3-0.4-0.6-0.4-1
			c0-0.5,0.2-0.9,0.6-1.2c0.4-0.3,1.1-0.5,2.1-0.5c0.1,0,0.3,0,0.6,0c0-0.4,0-0.6-0.1-0.8c-0.1-0.2-0.2-0.3-0.4-0.4
			s-0.4-0.1-0.7-0.1c-0.7,0-1.2,0.3-1.3,0.8l-0.7-0.1c0.2-0.9,0.9-1.3,2.1-1.3c0.6,0,1.1,0.1,1.4,0.4c0.3,0.3,0.4,0.8,0.4,1.5v2
			C40.4,64.8,40.4,65.1,40.5,65.4z M39.7,63c-0.3,0-0.5,0-0.7,0c-0.6,0-1,0.1-1.3,0.3c-0.3,0.2-0.5,0.5-0.5,0.8
			c0,0.2,0.1,0.4,0.3,0.6c0.2,0.2,0.4,0.2,0.7,0.2c0.4,0,0.8-0.2,1.1-0.5c0.3-0.3,0.4-0.7,0.4-1.1C39.7,63.3,39.7,63.2,39.7,63z"/>
		<path class="st2" d="M45.7,60v0.6c-0.3,0-0.6,0-0.7,0.1c-0.1,0.1-0.2,0.2-0.2,0.4c0.3,0.3,0.4,0.7,0.4,1.1c0,0.4-0.2,0.8-0.5,1.1
			c-0.3,0.3-0.8,0.5-1.3,0.5c-0.1,0-0.2,0-0.3,0c-0.2,0-0.3-0.1-0.3-0.1c-0.1,0-0.2,0-0.3,0.1s-0.2,0.2-0.2,0.3
			c0,0.2,0.1,0.3,0.3,0.4c0.2,0.1,0.6,0.1,1.2,0.1c0.5,0,0.9,0.1,1.2,0.1c0.3,0.1,0.5,0.2,0.6,0.4c0.2,0.2,0.3,0.4,0.3,0.7
			c0,0.9-0.8,1.3-2.4,1.3c-0.7,0-1.3-0.1-1.6-0.3c-0.3-0.2-0.5-0.5-0.5-0.9c0-0.5,0.2-0.8,0.7-0.9c-0.3-0.2-0.5-0.5-0.5-0.8
			c0-0.4,0.2-0.6,0.6-0.8c-0.4-0.3-0.6-0.7-0.6-1.2c0-0.5,0.2-0.8,0.5-1.1s0.8-0.4,1.3-0.4c0.4,0,0.7,0.1,1,0.2
			c0-0.3,0.2-0.5,0.3-0.6s0.4-0.2,0.8-0.2C45.5,60,45.6,60,45.7,60z M42.6,65.2c-0.3,0.1-0.5,0.4-0.5,0.6c0,0.2,0.1,0.4,0.4,0.6
			c0.3,0.1,0.6,0.2,1.1,0.2c0.4,0,0.8-0.1,1.1-0.2c0.3-0.1,0.5-0.3,0.5-0.6c0-0.1,0-0.3-0.1-0.4c-0.1-0.1-0.2-0.2-0.4-0.2
			c-0.2,0-0.5,0-0.9-0.1C43.2,65.2,42.8,65.2,42.6,65.2z M43.5,63.2c0.3,0,0.6-0.1,0.8-0.3c0.2-0.2,0.3-0.4,0.3-0.7
			c0-0.3-0.1-0.6-0.3-0.8c-0.2-0.2-0.4-0.3-0.7-0.3c-0.3,0-0.5,0.1-0.7,0.3c-0.2,0.2-0.3,0.4-0.3,0.8c0,0.3,0.1,0.5,0.3,0.7
			C42.9,63.1,43.1,63.2,43.5,63.2z"/>
		<path class="st2" d="M48.2,65.5c-0.6,0-1.1-0.2-1.5-0.7c-0.4-0.5-0.5-1.1-0.5-1.8c0-0.7,0.2-1.3,0.6-1.8c0.4-0.4,0.9-0.7,1.5-0.7
			c0.6,0,1.2,0.2,1.5,0.7c0.4,0.5,0.6,1.1,0.6,1.8c0,0.7-0.2,1.3-0.6,1.8C49.4,65.3,48.8,65.5,48.2,65.5z M48.3,64.9
			c0.4,0,0.7-0.2,0.9-0.5c0.3-0.3,0.4-0.8,0.4-1.4c0-0.6-0.1-1.1-0.4-1.4s-0.6-0.4-0.9-0.4c-0.4,0-0.7,0.1-0.9,0.4
			C47.1,61.9,47,62.4,47,63c0,0.7,0.1,1.2,0.4,1.5C47.6,64.8,47.9,64.9,48.3,64.9z"/>
		<path class="st2" d="M50.8,64.2l0.7-0.1c0.2,0.6,0.6,0.9,1.5,0.9c0.3,0,0.6-0.1,0.8-0.2c0.2-0.1,0.3-0.3,0.3-0.6
			c0-0.4-0.3-0.6-0.8-0.7l-1-0.2c-0.4-0.1-0.7-0.2-0.9-0.4C51.1,62.6,51,62.3,51,62c0-0.4,0.2-0.7,0.5-1c0.3-0.3,0.7-0.4,1.3-0.4
			c1,0,1.6,0.4,1.9,1.2L54,61.9c-0.2-0.5-0.6-0.7-1.2-0.7c-0.3,0-0.5,0.1-0.7,0.2c-0.2,0.1-0.3,0.3-0.3,0.5c0,0.3,0.2,0.6,0.7,0.7
			l0.9,0.2c1,0.2,1.4,0.6,1.4,1.4c0,0.4-0.2,0.8-0.5,1c-0.4,0.3-0.8,0.4-1.4,0.4C51.8,65.5,51.1,65.1,50.8,64.2z"/>
	</g>
</g>
</svg>
