<?xml version="1.0" encoding="utf-8"?>
<!-- Generator: Adobe Illustrator 22.1.0, SVG Export Plug-In . SVG Version: 6.00 Build 0)  -->
<svg version="1.1" id="Capa_1" xmlns="http://www.w3.org/2000/svg" xmlns:xlink="http://www.w3.org/1999/xlink" x="0px" y="0px"
	 viewBox="0 0 480 480" style="enable-background:new 0 0 480 480;" xml:space="preserve">
<style type="text/css">
	.st0{fill:#006DFF;}
	.st1{fill:#FFFFFF;}
</style>
<circle class="st0" cx="239.6" cy="240.2" r="236.7"/>
<g>
	<g>
		<g>
			<path class="st1" d="M670.7,298.4c8.2-7.4,13.4-18.1,13.4-30c0-22.4-18.2-40.7-40.7-40.7s-40.7,18.2-40.7,40.7
				c0,11.9,5.2,22.6,13.4,30c-24.1,4.6-42.4,25.9-42.4,51.3v23.2c0,3.2,2.6,5.8,5.8,5.8h127.8c3.2,0,5.8-2.6,5.8-5.8v-23.2
				C713.1,324.3,694.8,303,670.7,298.4z M614.3,268.4c0-16,13-29,29-29s29,13,29,29s-13,29-29,29S614.3,284.4,614.3,268.4z
				 M701.5,367.1H585.3v-17.4c0-22.4,18.2-40.7,40.7-40.7h34.9c22.4,0,40.7,18.2,40.7,40.7v17.4H701.5z"/>
		</g>
	</g>
	<g>
		<g>
			<path class="st1" d="M566.1,495.9c8.1-7.4,13.4-18.2,13.4-30c0-22.4-18.2-40.7-40.7-40.7s-40.7,18.2-40.7,40.7
				c0,11.9,5.2,22.6,13.4,30c-24.1,4.6-42.4,25.9-42.4,51.3v23.2c0,3.2,2.6,5.8,5.8,5.8h127.8c3.2,0,5.8-2.6,5.8-5.8v-23.2
				C608.5,521.8,590.2,500.5,566.1,495.9z M509.7,465.9c0-16,13-29,29-29s29,13,29,29s-13,29-29,29S509.7,481.9,509.7,465.9z
				 M596.9,564.7H480.7v-17.4c0-22.4,18.2-40.7,40.7-40.7h34.9c22.4,0,40.7,18.2,40.7,40.7v17.4H596.9z"/>
		</g>
	</g>
	<g>
		<g>
			<path class="st1" d="M775.2,495.9c8.1-7.4,13.4-18.2,13.4-30c0-22.4-18.2-40.7-40.7-40.7c-22.4,0-40.7,18.2-40.7,40.7
				c0,11.9,5.2,22.6,13.4,30c-24.1,4.6-42.4,25.9-42.4,51.3v23.2c0,3.2,2.6,5.8,5.8,5.8h127.8c3.2,0,5.8-2.6,5.8-5.8v-23.2
				C817.7,521.8,799.4,500.5,775.2,495.9z M718.9,465.9c0-16,13-29,29-29s29,13,29,29s-13,29-29,29S718.9,481.9,718.9,465.9z
				 M806,564.7H689.8v-17.4c0-22.4,18.2-40.7,40.7-40.7h34.9c22.4,0,40.7,18.2,40.7,40.7v17.4H806z"/>
		</g>
	</g>
	<g>
		<g>
			<path class="st1" d="M504.1,413.4l-11.6,0.4c0.1,4,0.5,8.1,0.9,12.1l11.5-1.4C504.5,420.9,504.2,417.1,504.1,413.4z"/>
		</g>
	</g>
	<g>
		<g>
			<path class="st1" d="M493.4,389.8c-0.4,4-0.8,8-0.9,12.1l11.6,0.4c0.1-3.7,0.4-7.5,0.9-11.1L493.4,389.8z"/>
		</g>
	</g>
	<g>
		<g>
			<path class="st1" d="M551.8,287.6c-3.2,2.4-6.3,5-9.3,7.7l7.8,8.6c2.8-2.5,5.7-4.9,8.6-7.1L551.8,287.6z"/>
		</g>
	</g>
	<g>
		<g>
			<path class="st1" d="M506.6,343.5c-1.7,3.6-3.3,7.4-4.7,11.1l10.9,4.1c1.3-3.5,2.8-6.9,4.4-10.2L506.6,343.5z"/>
		</g>
	</g>
	<g>
		<g>
			<path class="st1" d="M498.1,366.1c-1.1,3.8-2,7.8-2.8,11.8l11.4,2.3c0.7-3.6,1.6-7.3,2.6-10.8L498.1,366.1z"/>
		</g>
	</g>
	<g>
		<g>
			<path class="st1" d="M533.8,303.8c-2.8,2.9-5.4,6-8,9.1l9,7.3c2.3-2.8,4.8-5.7,7.3-8.4L533.8,303.8z"/>
		</g>
	</g>
	<g>
		<g>
			<path class="st1" d="M572.1,274.6c-3.5,1.9-7,3.9-10.5,6.1l6.3,9.8c3.1-2,6.4-3.9,9.6-5.7L572.1,274.6z"/>
		</g>
	</g>
	<g>
		<g>
			<path class="st1" d="M518.7,322.5c-2.3,3.3-4.4,6.8-6.4,10.2l10.1,5.8c1.8-3.2,3.8-6.4,6-9.4L518.7,322.5z"/>
		</g>
	</g>
	<g>
		<g>
			<path class="st1" d="M615.8,544.6l-2.3,11.4c3.9,0.8,7.9,1.5,11.9,1.9l1.4-11.5C623.2,545.9,619.5,545.3,615.8,544.6z"/>
		</g>
	</g>
	<g>
		<g>
			<path class="st1" d="M671.2,544.5c-3.6,0.7-7.3,1.3-11,1.8l1.4,11.5c4-0.5,8-1.2,11.9-2L671.2,544.5z"/>
		</g>
	</g>
	<g>
		<g>
			<path class="st1" d="M649.1,547.1c-3.7,0.1-7.5,0.1-11.2,0l-0.4,11.6c2,0.1,3.9,0.1,5.9,0.1c2.1,0,4.1-0.1,6.2-0.1L649.1,547.1z"
				/>
		</g>
	</g>
	<g>
		<g>
			<path class="st1" d="M744.2,295.4l-7.8,8.6c2.8,2.5,5.4,5.1,8,7.8l8.4-8C750.2,300.9,747.3,298.1,744.2,295.4z"/>
		</g>
	</g>
	<g>
		<g>
			<path class="st1" d="M760.9,312.9l-9,7.3c2.3,2.8,4.6,5.9,6.7,8.9l9.6-6.5C765.8,319.3,763.4,316,760.9,312.9z"/>
		</g>
	</g>
	<g>
		<g>
			<path class="st1" d="M794.3,401.8l-11.6,0.4c0.1,1.8,0.1,3.7,0.1,5.5c0,1.9,0,3.8-0.1,5.7l11.6,0.4c0.1-2,0.1-4.1,0.1-6.1
				C794.4,405.8,794.3,403.8,794.3,401.8z"/>
		</g>
	</g>
	<g>
		<g>
			<path class="st1" d="M774.5,332.8l-10.1,5.8c1.8,3.2,3.6,6.5,5.2,9.9l10.5-4.9C778.4,339.9,776.6,336.3,774.5,332.8z"/>
		</g>
	</g>
	<g>
		<g>
			<path class="st1" d="M784.8,354.6l-10.9,4.1c1.3,3.5,2.5,7,3.5,10.6l11.2-3.2C787.5,362.3,786.2,358.4,784.8,354.6z"/>
		</g>
	</g>
	<g>
		<g>
			<path class="st1" d="M791.4,377.9l-11.4,2.3c0.7,3.6,1.3,7.3,1.7,11l11.5-1.4C792.9,385.8,792.2,381.8,791.4,377.9z"/>
		</g>
	</g>
	<g>
		<g>
			<path class="st1" d="M725.1,280.7l-6.3,9.8c3.1,2,6.2,4.1,9.2,6.4l7-9.2C731.7,285.2,728.5,282.9,725.1,280.7z"/>
		</g>
	</g>
	<g>
		<g>
			<path class="st1" d="M703.8,269.3l-4.6,10.7c3.4,1.5,6.8,3.1,10,4.9l5.5-10.2C711.1,272.7,707.5,270.9,703.8,269.3z"/>
		</g>
	</g>
</g>
<g>
	<path class="st1" d="M230.1,186.8l-12.9-18.1l0,0l-0.8-1.1h-58.8v145h164.2V186.8H230.1z M316.3,192.3V206h-72.5l-9.9-13.7H316.3z
		 M163,307.2V173.1h50.6l13.7,19.1l0,0l12.9,18.1c0.5,0.8,1.4,1.1,2.2,1.1l0,0h73.9v95.8H163z"/>
	<polygon class="st1" points="215.8,247.8 219.7,251.7 236.9,234.4 236.9,282.6 242.4,282.6 242.4,234.4 259.6,251.7 263.5,247.8 
		239.6,224 	"/>
</g>
</svg>
